<svg xmlns="http://www.w3.org/2000/svg" viewBox="0 0 387.87 292.95"><defs><style>.cls-1{fill:#86f0df;}.cls-2{fill:#4f5d6b;}.cls-3{fill:#3f4b54;}.cls-4{fill:#f2f2f2;}.cls-5{fill:#2d465b;}.cls-6{fill:#fff;}.cls-7,.cls-8{fill:#e3e9ee;}.cls-7{opacity:0.4;}.cls-9{fill:#a8acaf;opacity:0.5;}.cls-10{fill:#677f91;}.cls-11{fill:#70c9bb;}</style></defs><title>Asset 380</title><g id="Layer_2" data-name="Layer 2"><g id="Layer_1-2" data-name="Layer 1"><path class="cls-1" d="M149.75,146a6,6,0,0,0-6,6V232.3a5.94,5.94,0,0,0,1.14,3.49V287a6,6,0,1,0,12,0V256.29a6,6,0,0,0,9.68,0v13a6,6,0,0,0,12,0v-26A6,6,0,0,0,188.2,245v1a5.94,5.94,0,0,0,1.14,3.49v29a6,6,0,1,0,12,0V256.29a6,6,0,0,0,10.82-3.49v25.63a6,6,0,1,0,12,0V255.65a6,6,0,0,0,12,0V175.34a6,6,0,0,0-9.68-4.69v23.48a6.54,6.54,0,0,1-9.68,5.75v14.19a6.55,6.55,0,1,1-13.1,0v-47a6,6,0,0,0-3.42,5.4v-6.83a6,6,0,0,0-10.25-4.17v-1A6,6,0,0,0,178.51,158v-6a6,6,0,0,0-2.28-4.69v40.57a6.55,6.55,0,1,1-13.1,0V146.18a5.87,5.87,0,0,0-1.42-.17,6,6,0,0,0-6,6A6,6,0,0,0,149.75,146Z"/><rect class="cls-2" y="18.81" width="387.87" height="227.53" rx="12" ry="12"/><rect class="cls-3" x="5.58" y="23.29" width="377.37" height="217.67" rx="12" ry="12"/><rect class="cls-4" x="9.16" y="27.77" width="369.55" height="209.61" rx="12" ry="12"/><rect class="cls-2" x="28.22" width="39.41" height="18.81"/><rect class="cls-2" x="11.2" y="5.37" width="17.92" height="8.06"/><rect class="cls-5" x="24.63" y="5.37" width="3.58" height="8.06"/><rect class="cls-3" x="28.22" y="15.23" width="39.41" height="3.58"/><circle class="cls-6" cx="31.8" cy="63.83" r="6.27"/><circle class="cls-6" cx="31.8" cy="81.41" r="6.27"/><circle class="cls-6" cx="31.8" cy="98.99" r="6.27"/><circle class="cls-6" cx="31.8" cy="116.57" r="6.27"/><circle class="cls-6" cx="31.8" cy="134.15" r="6.27"/><circle class="cls-6" cx="31.8" cy="151.73" r="6.27"/><circle class="cls-6" cx="31.8" cy="169.31" r="6.27"/><circle class="cls-6" cx="31.8" cy="186.89" r="6.27"/><circle class="cls-6" cx="31.8" cy="204.47" r="6.27"/><circle class="cls-6" cx="51.62" cy="63.83" r="6.27"/><circle class="cls-6" cx="51.62" cy="81.41" r="6.27"/><circle class="cls-6" cx="51.62" cy="98.99" r="6.27"/><circle class="cls-6" cx="51.62" cy="116.57" r="6.27"/><circle class="cls-6" cx="51.62" cy="134.15" r="6.27"/><circle class="cls-6" cx="51.62" cy="151.73" r="6.27"/><circle class="cls-6" cx="51.62" cy="169.31" r="6.27"/><circle class="cls-6" cx="51.62" cy="186.89" r="6.27"/><circle class="cls-6" cx="51.62" cy="204.47" r="6.27"/><circle class="cls-6" cx="91.26" cy="63.83" r="6.27"/><circle class="cls-6" cx="91.26" cy="81.41" r="6.27"/><circle class="cls-6" cx="91.26" cy="98.99" r="6.27"/><circle class="cls-6" cx="91.26" cy="116.57" r="6.27"/><circle class="cls-6" cx="91.26" cy="134.15" r="6.27"/><circle class="cls-6" cx="91.26" cy="151.73" r="6.27"/><circle class="cls-6" cx="91.26" cy="169.31" r="6.27"/><circle class="cls-6" cx="91.26" cy="186.89" r="6.27"/><circle class="cls-6" cx="91.26" cy="204.47" r="6.27"/><circle class="cls-6" cx="111.08" cy="63.83" r="6.27"/><circle class="cls-6" cx="111.08" cy="81.41" r="6.27"/><circle class="cls-6" cx="111.08" cy="98.99" r="6.27"/><circle class="cls-6" cx="111.08" cy="116.57" r="6.27"/><circle class="cls-6" cx="111.08" cy="134.15" r="6.27"/><circle class="cls-6" cx="111.08" cy="151.73" r="6.27"/><circle class="cls-6" cx="111.08" cy="169.31" r="6.27"/><circle class="cls-6" cx="111.08" cy="186.89" r="6.27"/><circle class="cls-6" cx="111.08" cy="204.47" r="6.27"/><circle class="cls-6" cx="130.9" cy="64.28" r="6.27"/><circle class="cls-6" cx="130.9" cy="81.86" r="6.27"/><circle class="cls-6" cx="130.9" cy="99.44" r="6.27"/><circle class="cls-6" cx="130.9" cy="117.02" r="6.27"/><circle class="cls-6" cx="130.9" cy="134.6" r="6.27"/><circle class="cls-6" cx="130.9" cy="152.18" r="6.27"/><circle class="cls-6" cx="130.9" cy="169.76" r="6.27"/><circle class="cls-6" cx="130.9" cy="187.34" r="6.27"/><circle class="cls-6" cx="130.9" cy="204.92" r="6.27"/><circle class="cls-6" cx="150.72" cy="63.38" r="6.27"/><circle class="cls-6" cx="150.72" cy="80.96" r="6.27"/><circle class="cls-6" cx="150.72" cy="98.54" r="6.27"/><circle class="cls-6" cx="150.72" cy="116.12" r="6.27"/><circle class="cls-6" cx="150.72" cy="133.7" r="6.27"/><circle class="cls-6" cx="150.72" cy="151.28" r="6.27"/><circle class="cls-6" cx="150.72" cy="168.86" r="6.27"/><circle class="cls-6" cx="150.72" cy="186.44" r="6.27"/><circle class="cls-6" cx="150.72" cy="204.02" r="6.27"/><circle class="cls-6" cx="170.53" cy="63.38" r="6.27"/><circle class="cls-6" cx="170.53" cy="80.96" r="6.27"/><circle class="cls-6" cx="170.53" cy="98.54" r="6.27"/><circle class="cls-6" cx="170.53" cy="116.12" r="6.27"/><circle class="cls-6" cx="170.53" cy="133.7" r="6.27"/><circle class="cls-6" cx="170.53" cy="151.28" r="6.27"/><circle class="cls-6" cx="170.53" cy="168.86" r="6.27"/><circle class="cls-6" cx="170.53" cy="186.44" r="6.27"/><circle class="cls-6" cx="170.53" cy="204.02" r="6.27"/><circle class="cls-6" cx="190.35" cy="63.38" r="6.27"/><circle class="cls-6" cx="190.35" cy="80.96" r="6.27"/><circle class="cls-6" cx="190.35" cy="98.54" r="6.27"/><circle class="cls-6" cx="190.35" cy="116.12" r="6.27"/><circle class="cls-6" cx="190.35" cy="133.7" r="6.27"/><circle class="cls-6" cx="190.35" cy="151.28" r="6.27"/><circle class="cls-6" cx="190.35" cy="168.86" r="6.27"/><circle class="cls-6" cx="190.35" cy="186.44" r="6.27"/><circle class="cls-6" cx="190.35" cy="204.02" r="6.27"/><circle class="cls-6" cx="210.62" cy="64.28" r="6.27"/><circle class="cls-6" cx="210.62" cy="81.86" r="6.27"/><circle class="cls-6" cx="210.62" cy="99.44" r="6.27"/><circle class="cls-6" cx="210.62" cy="117.02" r="6.27"/><circle class="cls-6" cx="210.62" cy="134.6" r="6.27"/><circle class="cls-6" cx="210.62" cy="152.18" r="6.27"/><circle class="cls-6" cx="210.62" cy="169.76" r="6.27"/><circle class="cls-6" cx="210.62" cy="187.34" r="6.27"/><circle class="cls-6" cx="210.62" cy="204.92" r="6.27"/><circle class="cls-6" cx="230.44" cy="63.38" r="6.27"/><circle class="cls-6" cx="230.44" cy="80.96" r="6.27"/><circle class="cls-6" cx="230.44" cy="98.54" r="6.27"/><circle class="cls-6" cx="230.44" cy="116.12" r="6.27"/><circle class="cls-6" cx="230.44" cy="133.7" r="6.27"/><circle class="cls-6" cx="230.44" cy="151.28" r="6.27"/><circle class="cls-6" cx="230.44" cy="168.86" r="6.27"/><circle class="cls-6" cx="230.44" cy="186.44" r="6.27"/><circle class="cls-6" cx="230.44" cy="204.02" r="6.27"/><circle class="cls-6" cx="250.26" cy="63.38" r="6.27"/><circle class="cls-6" cx="250.26" cy="80.96" r="6.27"/><circle class="cls-6" cx="250.26" cy="98.54" r="6.27"/><circle class="cls-6" cx="250.26" cy="116.12" r="6.27"/><circle class="cls-6" cx="250.26" cy="133.7" r="6.27"/><circle class="cls-6" cx="250.26" cy="151.28" r="6.27"/><circle class="cls-6" cx="250.26" cy="168.86" r="6.27"/><circle class="cls-6" cx="250.26" cy="186.44" r="6.27"/><circle class="cls-6" cx="250.26" cy="204.02" r="6.27"/><circle class="cls-6" cx="270.08" cy="63.38" r="6.27"/><circle class="cls-6" cx="270.08" cy="80.96" r="6.27"/><circle class="cls-6" cx="270.08" cy="98.54" r="6.27"/><circle class="cls-6" cx="270.08" cy="116.12" r="6.27"/><circle class="cls-6" cx="270.08" cy="133.7" r="6.27"/><circle class="cls-6" cx="270.08" cy="151.28" r="6.27"/><circle class="cls-6" cx="270.08" cy="168.86" r="6.27"/><circle class="cls-6" cx="270.08" cy="186.44" r="6.27"/><circle class="cls-6" cx="270.08" cy="204.02" r="6.27"/><circle class="cls-6" cx="287.66" cy="64.28" r="6.27"/><circle class="cls-6" cx="287.66" cy="81.86" r="6.27"/><circle class="cls-6" cx="287.66" cy="99.44" r="6.27"/><circle class="cls-6" cx="287.66" cy="117.02" r="6.27"/><circle class="cls-6" cx="287.66" cy="134.6" r="6.27"/><circle class="cls-6" cx="287.66" cy="152.18" r="6.27"/><circle class="cls-6" cx="287.66" cy="169.76" r="6.27"/><circle class="cls-6" cx="287.66" cy="187.34" r="6.27"/><circle class="cls-6" cx="287.66" cy="204.92" r="6.27"/><circle class="cls-6" cx="307.48" cy="63.38" r="6.27"/><circle class="cls-6" cx="307.48" cy="80.96" r="6.27"/><circle class="cls-6" cx="307.48" cy="98.54" r="6.27"/><circle class="cls-6" cx="307.48" cy="116.12" r="6.27"/><circle class="cls-6" cx="307.48" cy="133.7" r="6.27"/><circle class="cls-6" cx="307.48" cy="151.28" r="6.27"/><circle class="cls-6" cx="307.48" cy="168.86" r="6.27"/><circle class="cls-6" cx="307.48" cy="186.44" r="6.27"/><circle class="cls-6" cx="307.48" cy="204.02" r="6.27"/><circle class="cls-6" cx="327.3" cy="63.38" r="6.27"/><circle class="cls-6" cx="327.3" cy="80.96" r="6.27"/><circle class="cls-6" cx="327.3" cy="98.54" r="6.27"/><circle class="cls-6" cx="327.3" cy="116.12" r="6.27"/><circle class="cls-6" cx="327.3" cy="133.7" r="6.27"/><circle class="cls-6" cx="327.3" cy="151.28" r="6.27"/><circle class="cls-6" cx="327.3" cy="168.86" r="6.27"/><circle class="cls-6" cx="327.3" cy="186.44" r="6.27"/><circle class="cls-6" cx="327.3" cy="204.02" r="6.27"/><circle class="cls-6" cx="347.12" cy="63.38" r="6.27"/><circle class="cls-6" cx="347.12" cy="80.96" r="6.27"/><circle class="cls-6" cx="347.12" cy="98.54" r="6.27"/><circle class="cls-6" cx="347.12" cy="116.12" r="6.27"/><circle class="cls-6" cx="347.12" cy="133.7" r="6.27"/><circle class="cls-6" cx="347.12" cy="151.28" r="6.27"/><circle class="cls-6" cx="347.12" cy="168.86" r="6.27"/><circle class="cls-6" cx="347.12" cy="186.44" r="6.27"/><circle class="cls-6" cx="347.12" cy="204.02" r="6.27"/><circle class="cls-6" cx="71.44" cy="63.83" r="6.27"/><circle class="cls-6" cx="71.44" cy="81.41" r="6.27"/><circle class="cls-6" cx="71.44" cy="98.99" r="6.27"/><circle class="cls-6" cx="71.44" cy="116.57" r="6.27"/><circle class="cls-6" cx="71.44" cy="134.15" r="6.27"/><circle class="cls-6" cx="71.44" cy="151.73" r="6.27"/><circle class="cls-6" cx="71.44" cy="169.31" r="6.27"/><circle class="cls-6" cx="71.44" cy="186.89" r="6.27"/><circle class="cls-6" cx="71.44" cy="204.47" r="6.27"/><path class="cls-7" d="M367.72,27.77H225.21c-16,41.58-63.64,167-79.82,209.61H367.72a10.78,10.78,0,0,0,10.75-10.75V38.52A10.78,10.78,0,0,0,367.72,27.77Z"/><rect class="cls-1" x="69.42" y="114.4" width="18.88" height="5.2" rx="1.76" ry="1.76"/><path class="cls-3" d="M88.86,120.16H71.17a2.31,2.31,0,0,1-2.31-2.31v-2a2,2,0,0,1,2-2h18Zm-18-5.2a.9.9,0,0,0-.9.9v2A1.19,1.19,0,0,0,71.17,119H87.74V115Z"/><rect class="cls-8" x="82.86" y="112.52" width="20.6" height="8.96"/><path class="cls-3" d="M104.58,122.6H84.26a2.53,2.53,0,0,1-2.53-2.53v-6.15a2.53,2.53,0,0,1,2.53-2.53h20.32Zm-20.32-9a.28.28,0,0,0-.28.28v6.15a.28.28,0,0,0,.28.28h18.08v-6.71Z"/><rect class="cls-8" x="81.01" y="113.41" width="2.66" height="7.17"/><path class="cls-3" d="M84.79,121.7h-4.9v-9.41h4.9Zm-2.66-2.24h.42v-4.92h-.42Z"/><polyline class="cls-8" points="198.42 123.94 93.16 123.62 93.16 110.06 213.2 110.06"/><polygon class="cls-9" points="213.64 110.18 93.61 110.18 93.61 115.56 207.92 115.56 213.64 110.18"/><circle class="cls-3" cx="277.24" cy="117" r="7.17"/><circle class="cls-1" cx="276.35" cy="117" r="4.48"/><rect class="cls-3" x="180.5" y="107.59" width="96.74" height="18.81" rx="3.66" ry="3.66"/><path class="cls-3" d="M198.41,124.78l-103.2-.32a2.91,2.91,0,0,1-2.9-2.91v-9.44a2.91,2.91,0,0,1,2.91-2.91h118v1.68h-118A1.23,1.23,0,0,0,94,112.12v9.44a1.23,1.23,0,0,0,1.22,1.22l103.2.32Z"/><rect class="cls-1" x="241.41" y="115.21" width="22.39" height="3.58" rx="1.21" ry="1.21"/><rect class="cls-1" x="37.17" y="6.27" width="22.39" height="3.58" rx="1.21" ry="1.21"/><rect class="cls-3" x="98.98" y="116.45" width="34.94" height="3.58" rx="1.21" ry="1.21"/><path class="cls-10" d="M132.13,116.45h-14.8c-.23,1.2-.45,2.4-.67,3.58h15.47a1.79,1.79,0,0,0,0-3.58Z"/><rect class="cls-1" x="169.43" y="8.25" width="54.96" height="30.08" rx="4.55" ry="4.55"/><path class="cls-11" d="M168.85,25v6.36a7,7,0,0,0,6.94,6.94h41.08a7,7,0,0,0,6.94-6.94V25Z"/><path class="cls-5" d="M217.66,40h-41.5a8.42,8.42,0,0,1-8.41-8.41V15a8.42,8.42,0,0,1,8.41-8.41h41.5A8.42,8.42,0,0,1,226.08,15V31.6A8.42,8.42,0,0,1,217.66,40ZM176.16,9.93a5.05,5.05,0,0,0-5,5V31.6a5.05,5.05,0,0,0,5,5h41.5a5.05,5.05,0,0,0,5-5V15a5.05,5.05,0,0,0-5-5Z"/></g></g></svg>